<?xml version="1.0" standalone="no"?><!DOCTYPE svg PUBLIC "-//W3C//DTD SVG 1.1//EN" "http://www.w3.org/Graphics/SVG/1.1/DTD/svg11.dtd"><svg t="1648523349900" class="icon" viewBox="0 0 1024 1024" version="1.1" xmlns="http://www.w3.org/2000/svg" p-id="950" xmlns:xlink="http://www.w3.org/1999/xlink" width="200" height="200"><defs><style type="text/css">@font-face { font-family: feedback-iconfont; src: url("//at.alicdn.com/t/font_1031158_u69w8yhxdu.woff2?t=1630033759944") format("woff2"), url("//at.alicdn.com/t/font_1031158_u69w8yhxdu.woff?t=1630033759944") format("woff"), url("//at.alicdn.com/t/font_1031158_u69w8yhxdu.ttf?t=1630033759944") format("truetype"); }
</style></defs><path d="M918.673 861.66666667H104.327C82.578 861.66666667 65 846.03466667 65 826.69366667V255.63966667C65 236.29866667 82.578 220.66666667 104.327 220.66666667h814.346C940.422 220.66666667 958 236.29866667 958 255.63966667v571.054C958 845.94666667 940.323 861.66666667 918.673 861.66666667z" fill="#FFE9B4" p-id="951"></path><path d="M512 389.66666667H65V189.03666667C65 167.26366667 82.598 149.66666667 104.371 149.66666667h305.92c17.4 0 32.71 11.334 37.681 28.036L512 389.66666667z" fill="#FFB02C" p-id="952"></path><path d="M918.673 861.66666667H104.327C82.578 861.66666667 65 844.08666667 65 822.33466667V313.99866667C65 292.24666667 82.578 274.66666667 104.327 274.66666667h814.346C940.422 274.66666667 958 292.24666667 958 313.99866667v508.336C958 843.98666667 940.323 861.66666667 918.673 861.66666667z" fill="#FFCA28" p-id="953"></path></svg>