<?xml version="1.0" standalone="no"?><!DOCTYPE svg PUBLIC "-//W3C//DTD SVG 1.1//EN" "http://www.w3.org/Graphics/SVG/1.1/DTD/svg11.dtd"><svg t="1648618854071" class="icon" viewBox="0 0 1820 1024" version="1.1" xmlns="http://www.w3.org/2000/svg" p-id="1090" xmlns:xlink="http://www.w3.org/1999/xlink" width="355.46875" height="200"><defs><style type="text/css">@font-face { font-family: feedback-iconfont; src: url("//at.alicdn.com/t/font_1031158_u69w8yhxdu.woff2?t=1630033759944") format("woff2"), url("//at.alicdn.com/t/font_1031158_u69w8yhxdu.woff?t=1630033759944") format("woff"), url("//at.alicdn.com/t/font_1031158_u69w8yhxdu.ttf?t=1630033759944") format("truetype"); }
</style></defs><path d="M1597.74778569 293.64659098H463.50363565c-54.58835225 0-98.46966429 44.23236321-98.46966429 98.64518989L192.49265355 1189.52745635h1232.53828879c54.41282666 0 98.6451899-44.05683762 98.64518988-98.64518986l172.54131776-698.59048562c0-54.41282666-44.05683762-98.6451899-98.46966429-98.64518989z" fill="#FFCA28" p-id="1091"></path><path d="M389.60750543 219.57493749h1109.31956706v-96.88993627c0-54.41282666-44.23236321-98.6451899-98.64518989-98.6451899h-591.52008581v-89.3423521c0-54.41282666-44.23236321-98.6451899-98.64518757-98.64518758H217.24171325c-54.41282666 0-98.6451899 44.23236321-98.64518989 98.64518758v1156.00928397l172.36579221-772.6621414c0-54.23730106 44.23236321-98.46966429 98.64518986-98.4696643z" fill="#FFB02C" p-id="1092"></path></svg>