<svg 
 xmlns="http://www.w3.org/2000/svg"
 xmlns:xlink="http://www.w3.org/1999/xlink"
 width="285.5px" height="168.5px">
<path fill-rule="evenodd"  opacity="0.8" fill="rgb(225, 231, 227)"
 d="M0.500,0.500 L284.500,0.500 L284.500,167.500 L0.500,167.500 L0.500,0.500 Z"/>
<path fill-rule="evenodd"  stroke="rgb(46, 97, 59)" stroke-width="1px" stroke-linecap="butt" stroke-linejoin="miter" fill="none"
 d="M0.500,0.500 L1.500,0.500 L1.500,3.500 L0.500,3.500 L0.500,0.500 Z"/>
<path fill-rule="evenodd"  stroke="rgb(46, 97, 59)" stroke-width="1px" stroke-linecap="butt" stroke-linejoin="miter" fill="none"
 d="M0.500,27.500 L1.500,27.500 L1.500,30.500 L0.500,30.500 L0.500,27.500 Z"/>
<path fill-rule="evenodd"  stroke="rgb(124, 175, 139)" stroke-width="1px" stroke-linecap="butt" stroke-linejoin="miter" opacity="0.4" fill="none"
 d="M0.500,5.500 L1.500,5.500 L1.500,24.500 L0.500,24.500 L0.500,5.500 Z"/>
<path fill-rule="evenodd"  stroke="rgb(46, 97, 59)" stroke-width="1px" stroke-linecap="butt" stroke-linejoin="miter" fill="none"
 d="M283.500,0.500 L284.500,0.500 L284.500,3.500 L283.500,3.500 L283.500,0.500 Z"/>
<path fill-rule="evenodd"  stroke="rgb(46, 97, 59)" stroke-width="1px" stroke-linecap="butt" stroke-linejoin="miter" fill="none"
 d="M283.500,27.500 L284.500,27.500 L284.500,30.500 L283.500,30.500 L283.500,27.500 Z"/>
<path fill-rule="evenodd"  stroke="rgb(124, 175, 139)" stroke-width="1px" stroke-linecap="butt" stroke-linejoin="miter" opacity="0.4" fill="none"
 d="M283.500,5.500 L284.500,5.500 L284.500,24.500 L283.500,24.500 L283.500,5.500 Z"/>
<path fill-rule="evenodd"  opacity="0.4" fill="rgb(124, 175, 139)"
 d="M0,0 L284.500,0 L284.500,30.500 L0,30.500 L0,0 Z"/>
<path fill-rule="evenodd"  stroke="rgb(124, 175, 139)" stroke-width="1px" stroke-linecap="butt" stroke-linejoin="miter" opacity="0.4" fill="none"
 d="M5.500,166.500 L279.500,166.500 L279.500,167.500 L5.500,167.500 L5.500,166.500 Z"/>
<path fill-rule="evenodd"  stroke="rgb(46, 97, 59)" stroke-width="1px" stroke-linecap="butt" stroke-linejoin="miter" fill="none"
 d="M0.500,93.500 L1.500,93.500 L1.500,96.500 L0.500,96.500 L0.500,93.500 Z"/>
<path fill-rule="evenodd"  stroke="rgb(124, 175, 139)" stroke-width="1px" stroke-linecap="butt" stroke-linejoin="miter" opacity="0.4" fill="none"
 d="M0.500,32.500 L1.500,32.500 L1.500,91.500 L0.500,91.500 L0.500,32.500 Z"/>
<path fill-rule="evenodd"  stroke="rgb(124, 175, 139)" stroke-width="1px" stroke-linecap="butt" stroke-linejoin="miter" opacity="0.4" fill="none"
 d="M0.500,98.500 L1.500,98.500 L1.500,161.500 L0.500,161.500 L0.500,98.500 Z"/>
<path fill-rule="evenodd"  stroke="rgb(46, 97, 59)" stroke-width="1px" stroke-linecap="butt" stroke-linejoin="miter" fill="none"
 d="M0.500,164.500 L1.500,164.500 L1.500,167.500 L0.500,167.500 L0.500,164.500 Z"/>
<path fill-rule="evenodd"  stroke="rgb(46, 97, 59)" stroke-width="1px" stroke-linecap="butt" stroke-linejoin="miter" fill="none"
 d="M283.500,93.500 L284.500,93.500 L284.500,96.500 L283.500,96.500 L283.500,93.500 Z"/>
<path fill-rule="evenodd"  stroke="rgb(124, 175, 139)" stroke-width="1px" stroke-linecap="butt" stroke-linejoin="miter" opacity="0.4" fill="none"
 d="M283.500,32.500 L284.500,32.500 L284.500,91.500 L283.500,91.500 L283.500,32.500 Z"/>
<path fill-rule="evenodd"  stroke="rgb(124, 175, 139)" stroke-width="1px" stroke-linecap="butt" stroke-linejoin="miter" opacity="0.4" fill="none"
 d="M283.500,98.500 L284.500,98.500 L284.500,161.500 L283.500,161.500 L283.500,98.500 Z"/>
<path fill-rule="evenodd"  stroke="rgb(46, 97, 59)" stroke-width="1px" stroke-linecap="butt" stroke-linejoin="miter" fill="none"
 d="M283.500,164.500 L284.500,164.500 L284.500,167.500 L283.500,167.500 L283.500,164.500 Z"/>
<text kerning="auto" font-family="Adobe Heiti Std" fill="rgb(0, 0, 0)" font-size="14px" x="13.5px" y="22.5px"><tspan font-size="14px" font-family="Microsoft YaHei" fill="#223429">&#36135;&#29289;&#20449;&#24687;</tspan></text>
<text kerning="auto" font-family="Adobe Heiti Std" fill="rgb(0, 0, 0)" font-size="12px" x="20.5px" y="62.453px"><tspan font-size="12px" font-family="Microsoft YaHei" fill="#4F5B54">&#25209;&#27425;&#21495;&#65306;&#50;&#49;&#53;&#52;&#50;&#53;&#49;&#49;&#53;&#53;&#50;</tspan></text>
<text kerning="auto" font-family="Adobe Heiti Std" fill="rgb(0, 0, 0)" font-size="12px" x="21.5px" y="88.5px"><tspan font-size="12px" font-family="Microsoft YaHei" fill="#4F5B54">&#20837;&#24211;&#26102;&#38388;&#65306;&#50;&#48;&#50;&#49;&#45;&#49;&#48;&#45;&#50;&#51;&#32;&#32;&#50;&#49;&#58;&#48;&#48;</tspan></text>
<text kerning="auto" font-family="Adobe Heiti Std" fill="rgb(0, 0, 0)" font-size="12px" x="21.5px" y="114.5px"><tspan font-size="12px" font-family="Microsoft YaHei" fill="#4F5B54">&#36135;&#29289;&#31867;&#21035;&#65306;&#24178;&#36135;</tspan></text>
<text kerning="auto" font-family="Adobe Heiti Std" fill="rgb(0, 0, 0)" font-size="12px" x="20.5px" y="139.5px"><tspan font-size="12px" font-family="Microsoft YaHei" fill="#4F5B54">&#36136;&#26816;&#24773;&#20917;&#65306;&#26080;&#19981;&#33391;</tspan></text>
</svg>
